<?xml version="1.0" encoding="UTF-8"?> <svg xmlns="http://www.w3.org/2000/svg" width="385" height="342" viewBox="0 0 385 342" fill="none"> <path d="M7.45022 14.8911C11.565 14.8911 14.9008 11.5577 14.9008 7.44557C14.9008 3.33347 11.565 0 7.45022 0C3.33544 0 0 3.33347 0 7.44557C0 11.5577 3.33544 14.8911 7.45022 14.8911Z" fill="#6872E3"></path> <path d="M7.45022 14.8911C11.565 14.8911 14.9008 11.5577 14.9008 7.44557C14.9008 3.33347 11.565 0 7.45022 0C3.33544 0 0 3.33347 0 7.44557C0 11.5577 3.33544 14.8911 7.45022 14.8911Z" fill="url(#paint0_radial)"></path> <path d="M98.9389 14.8911C103.054 14.8911 106.389 11.5577 106.389 7.44557C106.389 3.33347 103.054 0 98.9389 0C94.8241 0 91.4883 3.33347 91.4883 7.44557C91.4883 11.5577 94.8241 14.8911 98.9389 14.8911Z" fill="#6872E3"></path> <path d="M98.9389 14.8911C103.054 14.8911 106.389 11.5577 106.389 7.44557C106.389 3.33347 103.054 0 98.9389 0C94.8241 0 91.4883 3.33347 91.4883 7.44557C91.4883 11.5577 94.8241 14.8911 98.9389 14.8911Z" fill="url(#paint1_radial)"></path> <path d="M190.454 14.8911C194.57 14.8911 197.905 11.5577 197.905 7.44557C197.905 3.33347 194.57 0 190.454 0C186.339 0 183.004 3.33347 183.004 7.44557C183.004 11.5577 186.339 14.8911 190.454 14.8911Z" fill="#6872E3"></path> <path d="M190.454 14.8911C194.57 14.8911 197.905 11.5577 197.905 7.44557C197.905 3.33347 194.57 0 190.454 0C186.339 0 183.004 3.33347 183.004 7.44557C183.004 11.5577 186.339 14.8911 190.454 14.8911Z" fill="url(#paint2_radial)"></path> <path d="M281.941 14.8911C286.056 14.8911 289.391 11.5577 289.391 7.44557C289.391 3.33347 286.056 0 281.941 0C277.825 0 274.49 3.33347 274.49 7.44557C274.49 11.5577 277.825 14.8911 281.941 14.8911Z" fill="#6872E3"></path> <path d="M281.941 14.8911C286.056 14.8911 289.391 11.5577 289.391 7.44557C289.391 3.33347 286.056 0 281.941 0C277.825 0 274.49 3.33347 274.49 7.44557C274.49 11.5577 277.825 14.8911 281.941 14.8911Z" fill="url(#paint3_radial)"></path> <path d="M373.513 14.8911C377.628 14.8911 380.963 11.5577 380.963 7.44557C380.963 3.33347 377.628 0 373.513 0C369.398 0 366.062 3.33347 366.062 7.44557C366.062 11.5577 369.398 14.8911 373.513 14.8911Z" fill="#6872E3"></path> <path d="M373.513 14.8911C377.628 14.8911 380.963 11.5577 380.963 7.44557C380.963 3.33347 377.628 0 373.513 0C369.398 0 366.062 3.33347 366.062 7.44557C366.062 11.5577 369.398 14.8911 373.513 14.8911Z" fill="url(#paint4_radial)"></path> <path d="M7.45022 95.1377C11.565 95.1377 14.9008 91.8045 14.9008 87.6924C14.9008 83.5802 11.565 80.2466 7.45022 80.2466C3.33544 80.2466 0 83.5802 0 87.6924C0 91.8045 3.33544 95.1377 7.45022 95.1377Z" fill="#6872E3"></path> <path d="M7.45022 95.1377C11.565 95.1377 14.9008 91.8045 14.9008 87.6924C14.9008 83.5802 11.565 80.2466 7.45022 80.2466C3.33544 80.2466 0 83.5802 0 87.6924C0 91.8045 3.33544 95.1377 7.45022 95.1377Z" fill="url(#paint5_radial)"></path> <path d="M98.9389 95.1309C103.054 95.1309 106.389 91.7976 106.389 87.6855C106.389 83.5734 103.054 80.2397 98.9389 80.2397C94.8241 80.2397 91.4883 83.5734 91.4883 87.6855C91.4883 91.7976 94.8241 95.1309 98.9389 95.1309Z" fill="#6872E3"></path> <path d="M98.9389 95.1309C103.054 95.1309 106.389 91.7976 106.389 87.6855C106.389 83.5734 103.054 80.2397 98.9389 80.2397C94.8241 80.2397 91.4883 83.5734 91.4883 87.6855C91.4883 91.7976 94.8241 95.1309 98.9389 95.1309Z" fill="url(#paint6_radial)"></path> <path d="M190.454 95.1309C194.57 95.1309 197.905 91.7976 197.905 87.6855C197.905 83.5734 194.57 80.2397 190.454 80.2397C186.339 80.2397 183.004 83.5734 183.004 87.6855C183.004 91.7976 186.339 95.1309 190.454 95.1309Z" fill="#6872E3"></path> <path d="M190.454 95.1309C194.57 95.1309 197.905 91.7976 197.905 87.6855C197.905 83.5734 194.57 80.2397 190.454 80.2397C186.339 80.2397 183.004 83.5734 183.004 87.6855C183.004 91.7976 186.339 95.1309 190.454 95.1309Z" fill="url(#paint7_radial)"></path> <path d="M281.941 95.1309C286.056 95.1309 289.391 91.7976 289.391 87.6855C289.391 83.5734 286.056 80.2397 281.941 80.2397C277.825 80.2397 274.49 83.5734 274.49 87.6855C274.49 91.7976 277.825 95.1309 281.941 95.1309Z" fill="#6872E3"></path> <path d="M281.941 95.1309C286.056 95.1309 289.391 91.7976 289.391 87.6855C289.391 83.5734 286.056 80.2397 281.941 80.2397C277.825 80.2397 274.49 83.5734 274.49 87.6855C274.49 91.7976 277.825 95.1309 281.941 95.1309Z" fill="url(#paint8_radial)"></path> <path d="M373.513 95.1309C377.628 95.1309 380.963 91.7976 380.963 87.6855C380.963 83.5734 377.628 80.2397 373.513 80.2397C369.398 80.2397 366.062 83.5734 366.062 87.6855C366.062 91.7976 369.398 95.1309 373.513 95.1309Z" fill="#6872E3"></path> <path d="M373.513 95.1309C377.628 95.1309 380.963 91.7976 380.963 87.6855C380.963 83.5734 377.628 80.2397 373.513 80.2397C369.398 80.2397 366.062 83.5734 366.062 87.6855C366.062 91.7976 369.398 95.1309 373.513 95.1309Z" fill="url(#paint9_radial)"></path> <path d="M7.45022 175.308C11.565 175.308 14.9008 171.975 14.9008 167.863C14.9008 163.75 11.565 160.417 7.45022 160.417C3.33544 160.417 0 163.75 0 167.863C0 171.975 3.33544 175.308 7.45022 175.308Z" fill="#6872E3"></path> <path d="M7.45022 175.308C11.565 175.308 14.9008 171.975 14.9008 167.863C14.9008 163.75 11.565 160.417 7.45022 160.417C3.33544 160.417 0 163.75 0 167.863C0 171.975 3.33544 175.308 7.45022 175.308Z" fill="url(#paint10_radial)"></path> <path d="M98.9389 175.308C103.054 175.308 106.389 171.975 106.389 167.863C106.389 163.75 103.054 160.417 98.9389 160.417C94.8241 160.417 91.4883 163.75 91.4883 167.863C91.4883 171.975 94.8241 175.308 98.9389 175.308Z" fill="#6872E3"></path> <path d="M98.9389 175.308C103.054 175.308 106.389 171.975 106.389 167.863C106.389 163.75 103.054 160.417 98.9389 160.417C94.8241 160.417 91.4883 163.75 91.4883 167.863C91.4883 171.975 94.8241 175.308 98.9389 175.308Z" fill="url(#paint11_radial)"></path> <path d="M190.454 175.308C194.57 175.308 197.905 171.975 197.905 167.863C197.905 163.75 194.57 160.417 190.454 160.417C186.339 160.417 183.004 163.75 183.004 167.863C183.004 171.975 186.339 175.308 190.454 175.308Z" fill="#6872E3"></path> <path d="M190.454 175.308C194.57 175.308 197.905 171.975 197.905 167.863C197.905 163.75 194.57 160.417 190.454 160.417C186.339 160.417 183.004 163.75 183.004 167.863C183.004 171.975 186.339 175.308 190.454 175.308Z" fill="url(#paint12_radial)"></path> <path d="M281.941 175.308C286.056 175.308 289.391 171.975 289.391 167.863C289.391 163.75 286.056 160.417 281.941 160.417C277.825 160.417 274.49 163.75 274.49 167.863C274.49 171.975 277.825 175.308 281.941 175.308Z" fill="#6872E3"></path> <path d="M281.941 175.308C286.056 175.308 289.391 171.975 289.391 167.863C289.391 163.75 286.056 160.417 281.941 160.417C277.825 160.417 274.49 163.75 274.49 167.863C274.49 171.975 277.825 175.308 281.941 175.308Z" fill="url(#paint13_radial)"></path> <path d="M373.513 175.308C377.628 175.308 380.963 171.975 380.963 167.863C380.963 163.75 377.628 160.417 373.513 160.417C369.398 160.417 366.062 163.75 366.062 167.863C366.062 171.975 369.398 175.308 373.513 175.308Z" fill="#6872E3"></path> <path d="M373.513 175.308C377.628 175.308 380.963 171.975 380.963 167.863C380.963 163.75 377.628 160.417 373.513 160.417C369.398 160.417 366.062 163.75 366.062 167.863C366.062 171.975 369.398 175.308 373.513 175.308Z" fill="url(#paint14_radial)"></path> <path d="M7.45022 255.492C11.565 255.492 14.9008 252.159 14.9008 248.047C14.9008 243.934 11.565 240.601 7.45022 240.601C3.33544 240.601 0 243.934 0 248.047C0 252.159 3.33544 255.492 7.45022 255.492Z" fill="#6872E3"></path> <path d="M7.45022 255.492C11.565 255.492 14.9008 252.159 14.9008 248.047C14.9008 243.934 11.565 240.601 7.45022 240.601C3.33544 240.601 0 243.934 0 248.047C0 252.159 3.33544 255.492 7.45022 255.492Z" fill="url(#paint15_radial)"></path> <path d="M98.9389 255.485C103.054 255.485 106.389 252.152 106.389 248.04C106.389 243.927 103.054 240.594 98.9389 240.594C94.8241 240.594 91.4883 243.927 91.4883 248.04C91.4883 252.152 94.8241 255.485 98.9389 255.485Z" fill="#6872E3"></path> <path d="M98.9389 255.485C103.054 255.485 106.389 252.152 106.389 248.04C106.389 243.927 103.054 240.594 98.9389 240.594C94.8241 240.594 91.4883 243.927 91.4883 248.04C91.4883 252.152 94.8241 255.485 98.9389 255.485Z" fill="url(#paint16_radial)"></path> <path d="M190.454 255.485C194.57 255.485 197.905 252.152 197.905 248.04C197.905 243.927 194.57 240.594 190.454 240.594C186.339 240.594 183.004 243.927 183.004 248.04C183.004 252.152 186.339 255.485 190.454 255.485Z" fill="#6872E3"></path> <path d="M190.454 255.485C194.57 255.485 197.905 252.152 197.905 248.04C197.905 243.927 194.57 240.594 190.454 240.594C186.339 240.594 183.004 243.927 183.004 248.04C183.004 252.152 186.339 255.485 190.454 255.485Z" fill="url(#paint17_radial)"></path> <path d="M281.941 255.485C286.056 255.485 289.391 252.152 289.391 248.04C289.391 243.927 286.056 240.594 281.941 240.594C277.825 240.594 274.49 243.927 274.49 248.04C274.49 252.152 277.825 255.485 281.941 255.485Z" fill="#6872E3"></path> <path d="M281.941 255.485C286.056 255.485 289.391 252.152 289.391 248.04C289.391 243.927 286.056 240.594 281.941 240.594C277.825 240.594 274.49 243.927 274.49 248.04C274.49 252.152 277.825 255.485 281.941 255.485Z" fill="url(#paint18_radial)"></path> <path d="M373.513 255.485C377.628 255.485 380.963 252.152 380.963 248.04C380.963 243.927 377.628 240.594 373.513 240.594C369.398 240.594 366.062 243.927 366.062 248.04C366.062 252.152 369.398 255.485 373.513 255.485Z" fill="#6872E3"></path> <path d="M373.513 255.485C377.628 255.485 380.963 252.152 380.963 248.04C380.963 243.927 377.628 240.594 373.513 240.594C369.398 240.594 366.062 243.927 366.062 248.04C366.062 252.152 369.398 255.485 373.513 255.485Z" fill="url(#paint19_radial)"></path> <path d="M7.45022 335.739C11.565 335.739 14.9008 332.406 14.9008 328.293C14.9008 324.181 11.565 320.848 7.45022 320.848C3.33544 320.848 0 324.181 0 328.293C0 332.406 3.33544 335.739 7.45022 335.739Z" fill="#6872E3"></path> <path d="M7.45022 335.739C11.565 335.739 14.9008 332.406 14.9008 328.293C14.9008 324.181 11.565 320.848 7.45022 320.848C3.33544 320.848 0 324.181 0 328.293C0 332.406 3.33544 335.739 7.45022 335.739Z" fill="url(#paint20_radial)"></path> <path d="M98.9389 335.732C103.054 335.732 106.389 332.399 106.389 328.286C106.389 324.175 103.054 320.841 98.9389 320.841C94.8241 320.841 91.4883 324.175 91.4883 328.286C91.4883 332.399 94.8241 335.732 98.9389 335.732Z" fill="#6872E3"></path> <path d="M98.9389 335.732C103.054 335.732 106.389 332.399 106.389 328.286C106.389 324.175 103.054 320.841 98.9389 320.841C94.8241 320.841 91.4883 324.175 91.4883 328.286C91.4883 332.399 94.8241 335.732 98.9389 335.732Z" fill="url(#paint21_radial)"></path> <path d="M190.454 335.732C194.57 335.732 197.905 332.399 197.905 328.286C197.905 324.175 194.57 320.841 190.454 320.841C186.339 320.841 183.004 324.175 183.004 328.286C183.004 332.399 186.339 335.732 190.454 335.732Z" fill="#6872E3"></path> <path d="M190.454 335.732C194.57 335.732 197.905 332.399 197.905 328.286C197.905 324.175 194.57 320.841 190.454 320.841C186.339 320.841 183.004 324.175 183.004 328.286C183.004 332.399 186.339 335.732 190.454 335.732Z" fill="url(#paint22_radial)"></path> <path d="M281.941 335.732C286.056 335.732 289.391 332.399 289.391 328.286C289.391 324.175 286.056 320.841 281.941 320.841C277.825 320.841 274.49 324.175 274.49 328.286C274.49 332.399 277.825 335.732 281.941 335.732Z" fill="#6872E3"></path> <path d="M281.941 335.732C286.056 335.732 289.391 332.399 289.391 328.286C289.391 324.175 286.056 320.841 281.941 320.841C277.825 320.841 274.49 324.175 274.49 328.286C274.49 332.399 277.825 335.732 281.941 335.732Z" fill="url(#paint23_radial)"></path> <path d="M373.513 335.732C377.628 335.732 380.963 332.399 380.963 328.286C380.963 324.175 377.628 320.841 373.513 320.841C369.398 320.841 366.062 324.175 366.062 328.286C366.062 332.399 369.398 335.732 373.513 335.732Z" fill="#6872E3"></path> <path d="M373.513 335.732C377.628 335.732 380.963 332.399 380.963 328.286C380.963 324.175 377.628 320.841 373.513 320.841C369.398 320.841 366.062 324.175 366.062 328.286C366.062 332.399 369.398 335.732 373.513 335.732Z" fill="url(#paint24_radial)"></path> <defs> <radialGradient id="paint0_radial" cx="0" cy="0" r="1" gradientUnits="userSpaceOnUse" gradientTransform="translate(1.92408 -4.33979) scale(17.8855 26.8114)"> <stop stop-color="#00CF91"></stop> <stop offset="1" stop-color="#00CF60"></stop> </radialGradient> <radialGradient id="paint1_radial" cx="0" cy="0" r="1" gradientUnits="userSpaceOnUse" gradientTransform="translate(93.4124 -4.33979) scale(17.8855 26.8114)"> <stop stop-color="#00CF91"></stop> <stop offset="1" stop-color="#00CF60"></stop> </radialGradient> <radialGradient id="paint2_radial" cx="0" cy="0" r="1" gradientUnits="userSpaceOnUse" gradientTransform="translate(184.928 -4.33979) scale(17.8857 26.8114)"> <stop stop-color="#00CF91"></stop> <stop offset="1" stop-color="#00CF60"></stop> </radialGradient> <radialGradient id="paint3_radial" cx="0" cy="0" r="1" gradientUnits="userSpaceOnUse" gradientTransform="translate(276.414 -4.33979) scale(17.8857 26.8114)"> <stop stop-color="#00CF91"></stop> <stop offset="1" stop-color="#00CF60"></stop> </radialGradient> <radialGradient id="paint4_radial" cx="0" cy="0" r="1" gradientUnits="userSpaceOnUse" gradientTransform="translate(367.987 -4.33979) scale(17.8857 26.8114)"> <stop stop-color="#00CF91"></stop> <stop offset="1" stop-color="#00CF60"></stop> </radialGradient> <radialGradient id="paint5_radial" cx="0" cy="0" r="1" gradientUnits="userSpaceOnUse" gradientTransform="translate(1.92408 75.9068) scale(17.8855 26.8114)"> <stop stop-color="#00CF91"></stop> <stop offset="1" stop-color="#00CF60"></stop> </radialGradient> <radialGradient id="paint6_radial" cx="0" cy="0" r="1" gradientUnits="userSpaceOnUse" gradientTransform="translate(93.4124 75.9) scale(17.8855 26.8114)"> <stop stop-color="#00CF91"></stop> <stop offset="1" stop-color="#00CF60"></stop> </radialGradient> <radialGradient id="paint7_radial" cx="0" cy="0" r="1" gradientUnits="userSpaceOnUse" gradientTransform="translate(184.928 75.9) scale(17.8857 26.8114)"> <stop stop-color="#00CF91"></stop> <stop offset="1" stop-color="#00CF60"></stop> </radialGradient> <radialGradient id="paint8_radial" cx="0" cy="0" r="1" gradientUnits="userSpaceOnUse" gradientTransform="translate(276.414 75.9) scale(17.8857 26.8114)"> <stop stop-color="#00CF91"></stop> <stop offset="1" stop-color="#00CF60"></stop> </radialGradient> <radialGradient id="paint9_radial" cx="0" cy="0" r="1" gradientUnits="userSpaceOnUse" gradientTransform="translate(367.987 75.9) scale(17.8857 26.8114)"> <stop stop-color="#00CF91"></stop> <stop offset="1" stop-color="#00CF60"></stop> </radialGradient> <radialGradient id="paint10_radial" cx="0" cy="0" r="1" gradientUnits="userSpaceOnUse" gradientTransform="translate(1.92408 156.077) scale(17.8855 26.8116)"> <stop stop-color="#00CF91"></stop> <stop offset="1" stop-color="#00CF60"></stop> </radialGradient> <radialGradient id="paint11_radial" cx="0" cy="0" r="1" gradientUnits="userSpaceOnUse" gradientTransform="translate(93.4124 156.077) scale(17.8855 26.8116)"> <stop stop-color="#00CF91"></stop> <stop offset="1" stop-color="#00CF60"></stop> </radialGradient> <radialGradient id="paint12_radial" cx="0" cy="0" r="1" gradientUnits="userSpaceOnUse" gradientTransform="translate(184.928 156.077) scale(17.8857 26.8116)"> <stop stop-color="#00CF91"></stop> <stop offset="1" stop-color="#00CF60"></stop> </radialGradient> <radialGradient id="paint13_radial" cx="0" cy="0" r="1" gradientUnits="userSpaceOnUse" gradientTransform="translate(276.414 156.077) scale(17.8857 26.8116)"> <stop stop-color="#00CF91"></stop> <stop offset="1" stop-color="#00CF60"></stop> </radialGradient> <radialGradient id="paint14_radial" cx="0" cy="0" r="1" gradientUnits="userSpaceOnUse" gradientTransform="translate(367.987 156.077) scale(17.8857 26.8116)"> <stop stop-color="#00CF91"></stop> <stop offset="1" stop-color="#00CF60"></stop> </radialGradient> <radialGradient id="paint15_radial" cx="0" cy="0" r="1" gradientUnits="userSpaceOnUse" gradientTransform="translate(1.92408 236.261) scale(17.8855 26.8116)"> <stop stop-color="#00CF91"></stop> <stop offset="1" stop-color="#00CF60"></stop> </radialGradient> <radialGradient id="paint16_radial" cx="0" cy="0" r="1" gradientUnits="userSpaceOnUse" gradientTransform="translate(93.4124 236.254) scale(17.8855 26.8116)"> <stop stop-color="#00CF91"></stop> <stop offset="1" stop-color="#00CF60"></stop> </radialGradient> <radialGradient id="paint17_radial" cx="0" cy="0" r="1" gradientUnits="userSpaceOnUse" gradientTransform="translate(184.928 236.254) scale(17.8857 26.8116)"> <stop stop-color="#00CF91"></stop> <stop offset="1" stop-color="#00CF60"></stop> </radialGradient> <radialGradient id="paint18_radial" cx="0" cy="0" r="1" gradientUnits="userSpaceOnUse" gradientTransform="translate(276.414 236.254) scale(17.8857 26.8116)"> <stop stop-color="#00CF91"></stop> <stop offset="1" stop-color="#00CF60"></stop> </radialGradient> <radialGradient id="paint19_radial" cx="0" cy="0" r="1" gradientUnits="userSpaceOnUse" gradientTransform="translate(367.987 236.254) scale(17.8857 26.8116)"> <stop stop-color="#00CF91"></stop> <stop offset="1" stop-color="#00CF60"></stop> </radialGradient> <radialGradient id="paint20_radial" cx="0" cy="0" r="1" gradientUnits="userSpaceOnUse" gradientTransform="translate(1.92408 316.508) scale(17.8855 26.8117)"> <stop stop-color="#00CF91"></stop> <stop offset="1" stop-color="#00CF60"></stop> </radialGradient> <radialGradient id="paint21_radial" cx="0" cy="0" r="1" gradientUnits="userSpaceOnUse" gradientTransform="translate(93.4124 316.501) scale(17.8855 26.8116)"> <stop stop-color="#00CF91"></stop> <stop offset="1" stop-color="#00CF60"></stop> </radialGradient> <radialGradient id="paint22_radial" cx="0" cy="0" r="1" gradientUnits="userSpaceOnUse" gradientTransform="translate(184.928 316.501) scale(17.8857 26.8116)"> <stop stop-color="#00CF91"></stop> <stop offset="1" stop-color="#00CF60"></stop> </radialGradient> <radialGradient id="paint23_radial" cx="0" cy="0" r="1" gradientUnits="userSpaceOnUse" gradientTransform="translate(276.414 316.501) scale(17.8857 26.8116)"> <stop stop-color="#00CF91"></stop> <stop offset="1" stop-color="#00CF60"></stop> </radialGradient> <radialGradient id="paint24_radial" cx="0" cy="0" r="1" gradientUnits="userSpaceOnUse" gradientTransform="translate(367.987 316.501) scale(17.8857 26.8116)"> <stop stop-color="#00CF91"></stop> <stop offset="1" stop-color="#00CF60"></stop> </radialGradient> </defs> </svg> 