<?xml version="1.0" encoding="UTF-8"?> <svg xmlns="http://www.w3.org/2000/svg" width="27" height="24" viewBox="0 0 27 24" fill="none"> <path d="M0.522483 1.04499C0.811052 1.04499 1.04499 0.811065 1.04499 0.522496C1.04499 0.233928 0.811052 0 0.522483 0C0.233914 0 0 0.233928 0 0.522496C0 0.811065 0.233914 1.04499 0.522483 1.04499Z" fill="#05BA84"></path> <path d="M6.93853 1.04499C7.22709 1.04499 7.46101 0.811065 7.46101 0.522496C7.46101 0.233928 7.22709 0 6.93853 0C6.64996 0 6.41602 0.233928 6.41602 0.522496C6.41602 0.811065 6.64996 1.04499 6.93853 1.04499Z" fill="#05BA84"></path> <path d="M13.3565 1.04499C13.6451 1.04499 13.879 0.811065 13.879 0.522496C13.879 0.233928 13.6451 0 13.3565 0C13.0679 0 12.834 0.233928 12.834 0.522496C12.834 0.811065 13.0679 1.04499 13.3565 1.04499Z" fill="#05BA84"></path> <path d="M19.7725 1.04499C20.0611 1.04499 20.295 0.811065 20.295 0.522496C20.295 0.233928 20.0611 0 19.7725 0C19.4839 0 19.25 0.233928 19.25 0.522496C19.25 0.811065 19.4839 1.04499 19.7725 1.04499Z" fill="#05BA84"></path> <path d="M26.1944 1.04499C26.483 1.04499 26.7169 0.811065 26.7169 0.522496C26.7169 0.233928 26.483 0 26.1944 0C25.9058 0 25.6719 0.233928 25.6719 0.522496C25.6719 0.811065 25.9058 1.04499 26.1944 1.04499Z" fill="#05BA84"></path> <path d="M0.522483 6.67634C0.811052 6.67634 1.04499 6.44243 1.04499 6.15386C1.04499 5.86529 0.811052 5.63135 0.522483 5.63135C0.233914 5.63135 0 5.86529 0 6.15386C0 6.44243 0.233914 6.67634 0.522483 6.67634Z" fill="#05BA84"></path> <path d="M6.93853 6.67585C7.22709 6.67585 7.46101 6.44194 7.46101 6.15337C7.46101 5.8648 7.22709 5.63086 6.93853 5.63086C6.64996 5.63086 6.41602 5.8648 6.41602 6.15337C6.41602 6.44194 6.64996 6.67585 6.93853 6.67585Z" fill="#05BA84"></path> <path d="M13.3565 6.67585C13.6451 6.67585 13.879 6.44194 13.879 6.15337C13.879 5.8648 13.6451 5.63086 13.3565 5.63086C13.0679 5.63086 12.834 5.8648 12.834 6.15337C12.834 6.44194 13.0679 6.67585 13.3565 6.67585Z" fill="#05BA84"></path> <path d="M19.7725 6.67585C20.0611 6.67585 20.295 6.44194 20.295 6.15337C20.295 5.8648 20.0611 5.63086 19.7725 5.63086C19.4839 5.63086 19.25 5.8648 19.25 6.15337C19.25 6.44194 19.4839 6.67585 19.7725 6.67585Z" fill="#05BA84"></path> <path d="M26.1944 6.67585C26.483 6.67585 26.7169 6.44194 26.7169 6.15337C26.7169 5.8648 26.483 5.63086 26.1944 5.63086C25.9058 5.63086 25.6719 5.8648 25.6719 6.15337C25.6719 6.44194 25.9058 6.67585 26.1944 6.67585Z" fill="#05BA84"></path> <path d="M0.522483 12.3023C0.811052 12.3023 1.04499 12.0684 1.04499 11.7798C1.04499 11.4912 0.811052 11.2573 0.522483 11.2573C0.233914 11.2573 0 11.4912 0 11.7798C0 12.0684 0.233914 12.3023 0.522483 12.3023Z" fill="#05BA84"></path> <path d="M6.93853 12.3023C7.22709 12.3023 7.46101 12.0684 7.46101 11.7798C7.46101 11.4912 7.22709 11.2573 6.93853 11.2573C6.64996 11.2573 6.41602 11.4912 6.41602 11.7798C6.41602 12.0684 6.64996 12.3023 6.93853 12.3023Z" fill="#05BA84"></path> <path d="M13.3565 12.3023C13.6451 12.3023 13.879 12.0684 13.879 11.7798C13.879 11.4912 13.6451 11.2573 13.3565 11.2573C13.0679 11.2573 12.834 11.4912 12.834 11.7798C12.834 12.0684 13.0679 12.3023 13.3565 12.3023Z" fill="#05BA84"></path> <path d="M19.7725 12.3023C20.0611 12.3023 20.295 12.0684 20.295 11.7798C20.295 11.4912 20.0611 11.2573 19.7725 11.2573C19.4839 11.2573 19.25 11.4912 19.25 11.7798C19.25 12.0684 19.4839 12.3023 19.7725 12.3023Z" fill="#05BA84"></path> <path d="M26.1944 12.3023C26.483 12.3023 26.7169 12.0684 26.7169 11.7798C26.7169 11.4912 26.483 11.2573 26.1944 11.2573C25.9058 11.2573 25.6719 11.4912 25.6719 11.7798C25.6719 12.0684 25.9058 12.3023 26.1944 12.3023Z" fill="#05BA84"></path> <path d="M0.522483 17.9293C0.811052 17.9293 1.04499 17.6954 1.04499 17.4068C1.04499 17.1182 0.811052 16.8843 0.522483 16.8843C0.233914 16.8843 0 17.1182 0 17.4068C0 17.6954 0.233914 17.9293 0.522483 17.9293Z" fill="#05BA84"></path> <path d="M6.93853 17.9288C7.22709 17.9288 7.46101 17.6949 7.46101 17.4063C7.46101 17.1177 7.22709 16.8838 6.93853 16.8838C6.64996 16.8838 6.41602 17.1177 6.41602 17.4063C6.41602 17.6949 6.64996 17.9288 6.93853 17.9288Z" fill="#05BA84"></path> <path d="M13.3565 17.9288C13.6451 17.9288 13.879 17.6949 13.879 17.4063C13.879 17.1177 13.6451 16.8838 13.3565 16.8838C13.0679 16.8838 12.834 17.1177 12.834 17.4063C12.834 17.6949 13.0679 17.9288 13.3565 17.9288Z" fill="#05BA84"></path> <path d="M19.7725 17.9288C20.0611 17.9288 20.295 17.6949 20.295 17.4063C20.295 17.1177 20.0611 16.8838 19.7725 16.8838C19.4839 16.8838 19.25 17.1177 19.25 17.4063C19.25 17.6949 19.4839 17.9288 19.7725 17.9288Z" fill="#05BA84"></path> <path d="M26.1944 17.9288C26.483 17.9288 26.7169 17.6949 26.7169 17.4063C26.7169 17.1177 26.483 16.8838 26.1944 16.8838C25.9058 16.8838 25.6719 17.1177 25.6719 17.4063C25.6719 17.6949 25.9058 17.9288 26.1944 17.9288Z" fill="#05BA84"></path> <path d="M0.522483 23.5606C0.811052 23.5606 1.04499 23.3267 1.04499 23.0381C1.04499 22.7495 0.811052 22.5156 0.522483 22.5156C0.233914 22.5156 0 22.7495 0 23.0381C0 23.3267 0.233914 23.5606 0.522483 23.5606Z" fill="#05BA84"></path> <path d="M6.93853 23.5601C7.22709 23.5601 7.46101 23.3262 7.46101 23.0376C7.46101 22.7491 7.22709 22.5151 6.93853 22.5151C6.64996 22.5151 6.41602 22.7491 6.41602 23.0376C6.41602 23.3262 6.64996 23.5601 6.93853 23.5601Z" fill="#05BA84"></path> <path d="M13.3565 23.5601C13.6451 23.5601 13.879 23.3262 13.879 23.0376C13.879 22.7491 13.6451 22.5151 13.3565 22.5151C13.0679 22.5151 12.834 22.7491 12.834 23.0376C12.834 23.3262 13.0679 23.5601 13.3565 23.5601Z" fill="#05BA84"></path> <path d="M19.7725 23.5601C20.0611 23.5601 20.295 23.3262 20.295 23.0376C20.295 22.7491 20.0611 22.5151 19.7725 22.5151C19.4839 22.5151 19.25 22.7491 19.25 23.0376C19.25 23.3262 19.4839 23.5601 19.7725 23.5601Z" fill="#05BA84"></path> <path d="M26.1944 23.5601C26.483 23.5601 26.7169 23.3262 26.7169 23.0376C26.7169 22.7491 26.483 22.5151 26.1944 22.5151C25.9058 22.5151 25.6719 22.7491 25.6719 23.0376C25.6719 23.3262 25.9058 23.5601 26.1944 23.5601Z" fill="#05BA84"></path> </svg> 